<svg width="1088" height="200" viewBox="0 0 1088 200" fill="none" xmlns="http://www.w3.org/2000/svg">
<path d="M247.48 138.085V124.775H286.31V138.085H247.48ZM247.48 74.395V61.085H286.31V74.395H247.48ZM247.48 103.765V90.675H284.11V103.765H247.48ZM237.36 61.085H252.54V138.085H237.36V61.085ZM354.393 61.085H369.573V141.935L314.793 90.345V138.085H299.613V57.235L354.393 108.825V61.085ZM394.223 138.085V124.775H433.053V138.085H394.223ZM394.223 74.395V61.085H433.053V74.395H394.223ZM394.223 103.765V90.675H430.853V103.765H394.223ZM384.103 61.085H399.283V138.085H384.103V61.085ZM463.846 102.225H480.456L505.536 138.085H486.946L463.846 102.225ZM446.356 61.085H462.086V138.085H446.356V61.085ZM455.926 74.505V61.085H472.206C478.292 61.085 483.462 62.1116 487.716 64.165C491.969 66.2183 495.232 69.0783 497.506 72.745C499.779 76.4116 500.916 80.7016 500.916 85.615C500.916 90.455 499.779 94.745 497.506 98.485C495.232 102.152 491.969 105.012 487.716 107.065C483.462 109.118 478.292 110.145 472.206 110.145H455.926V97.605H471.216C474.002 97.605 476.386 97.165 478.366 96.285C480.419 95.3316 481.996 94.0116 483.096 92.325C484.196 90.565 484.746 88.475 484.746 86.055C484.746 83.635 484.196 81.5816 483.096 79.895C481.996 78.135 480.419 76.815 478.366 75.935C476.386 74.9816 474.002 74.505 471.216 74.505H455.926ZM549.769 109.485V96.945H587.719C587.939 102.812 587.242 108.348 585.629 113.555C584.089 118.762 581.632 123.382 578.259 127.415C574.959 131.375 570.852 134.492 565.939 136.765C561.025 139.038 555.415 140.175 549.109 140.175C543.169 140.175 537.669 139.185 532.609 137.205C527.622 135.225 523.259 132.438 519.519 128.845C515.852 125.252 512.992 120.962 510.939 115.975C508.959 110.988 507.969 105.525 507.969 99.585C507.969 93.645 508.995 88.2183 511.049 83.305C513.175 78.3183 516.109 74.065 519.849 70.545C523.589 67.025 527.989 64.3116 533.049 62.405C538.109 60.4983 543.609 59.545 549.549 59.545C554.829 59.545 559.559 60.2783 563.739 61.745C567.992 63.2116 571.732 65.265 574.959 67.905C578.259 70.4716 581.082 73.5516 583.429 77.145L570.009 84.955C568.102 81.5816 565.425 78.8683 561.979 76.815C558.605 74.6883 554.462 73.625 549.549 73.625C544.929 73.625 540.712 74.6883 536.899 76.815C533.085 78.8683 530.042 81.8383 527.769 85.725C525.569 89.6116 524.469 94.2316 524.469 99.585C524.469 104.865 525.569 109.522 527.769 113.555C529.969 117.515 532.939 120.595 536.679 122.795C540.492 124.995 544.782 126.095 549.549 126.095C552.702 126.095 555.525 125.692 558.019 124.885C560.512 124.005 562.639 122.795 564.399 121.255C566.232 119.715 567.772 117.955 569.019 115.975C570.265 113.995 571.219 111.832 571.879 109.485H549.769ZM610.572 99.585C610.572 104.498 611.599 108.862 613.652 112.675C615.705 116.488 618.529 119.495 622.122 121.695C625.715 123.895 629.895 124.995 634.662 124.995C639.429 124.995 643.609 123.895 647.202 121.695C650.795 119.495 653.582 116.488 655.562 112.675C657.615 108.862 658.642 104.498 658.642 99.585C658.642 94.6716 657.652 90.3083 655.672 86.495C653.692 82.6816 650.905 79.675 647.312 77.475C643.719 75.275 639.502 74.175 634.662 74.175C629.895 74.175 625.715 75.275 622.122 77.475C618.529 79.675 615.705 82.6816 613.652 86.495C611.599 90.3083 610.572 94.6716 610.572 99.585ZM593.962 99.585C593.962 93.7183 594.989 88.365 597.042 83.525C599.095 78.6116 601.955 74.3583 605.622 70.765C609.289 67.1716 613.579 64.4216 618.492 62.515C623.479 60.535 628.869 59.545 634.662 59.545C640.529 59.545 645.919 60.535 650.832 62.515C655.745 64.4216 660.035 67.1716 663.702 70.765C667.442 74.3583 670.302 78.6116 672.282 83.525C674.335 88.365 675.362 93.7183 675.362 99.585C675.362 105.378 674.335 110.768 672.282 115.755C670.302 120.668 667.479 124.958 663.812 128.625C660.219 132.292 655.929 135.152 650.942 137.205C646.029 139.185 640.602 140.175 634.662 140.175C628.722 140.175 623.259 139.185 618.272 137.205C613.359 135.152 609.069 132.292 605.402 128.625C601.735 124.958 598.912 120.668 596.932 115.755C594.952 110.768 593.962 105.378 593.962 99.585Z" fill="#2C652B"/>
<path d="M697.972 99.585C697.972 104.645 699.109 109.082 701.382 112.895C703.729 116.635 706.772 119.532 710.512 121.585C714.252 123.565 718.322 124.555 722.722 124.555C726.389 124.555 729.652 124.078 732.512 123.125C735.372 122.172 737.939 120.888 740.212 119.275C742.559 117.662 744.575 115.902 746.262 113.995V131.705C743.109 134.198 739.662 136.142 735.922 137.535C732.255 138.928 727.599 139.625 721.952 139.625C716.085 139.625 710.622 138.672 705.562 136.765C700.575 134.858 696.212 132.108 692.472 128.515C688.805 124.922 685.945 120.705 683.892 115.865C681.912 110.952 680.922 105.525 680.922 99.585C680.922 93.645 681.912 88.255 683.892 83.415C685.945 78.5016 688.805 74.2483 692.472 70.655C696.212 67.0616 700.575 64.3116 705.562 62.405C710.622 60.4983 716.085 59.545 721.952 59.545C727.599 59.545 732.255 60.2416 735.922 61.635C739.662 63.0283 743.109 64.9716 746.262 67.465V85.175C744.575 83.2683 742.559 81.5083 740.212 79.895C737.939 78.2816 735.372 76.9983 732.512 76.045C729.652 75.0916 726.389 74.615 722.722 74.615C718.322 74.615 714.252 75.6416 710.512 77.695C706.772 79.675 703.729 82.535 701.382 86.275C699.109 90.015 697.972 94.4516 697.972 99.585ZM769.834 138.085V124.775H808.664V138.085H769.834ZM769.834 74.395V61.085H808.664V74.395H769.834ZM769.834 103.765V90.675H806.464V103.765H769.834ZM759.714 61.085H774.894V138.085H759.714V61.085ZM876.747 61.085H891.927V141.935L837.147 90.345V138.085H821.967V57.235L876.747 108.825V61.085ZM898.756 75.275V61.085H955.956V75.275H935.166V138.085H919.436V75.275H898.756ZM962.407 120.595L964.277 108.165H1001.24L1003.11 120.595H962.407ZM982.537 86.055L970.987 112.565L971.317 116.085L961.197 138.085H943.487L982.537 56.575L1021.59 138.085H1003.77L993.867 116.745L994.087 112.785L982.537 86.055ZM1045.23 102.225H1061.84L1086.92 138.085H1068.33L1045.23 102.225ZM1027.74 61.085H1043.47V138.085H1027.74V61.085ZM1037.31 74.505V61.085H1053.59C1059.68 61.085 1064.85 62.1116 1069.1 64.165C1073.35 66.2183 1076.62 69.0783 1078.89 72.745C1081.16 76.4116 1082.3 80.7016 1082.3 85.615C1082.3 90.455 1081.16 94.745 1078.89 98.485C1076.62 102.152 1073.35 105.012 1069.1 107.065C1064.85 109.118 1059.68 110.145 1053.59 110.145H1037.31V97.605H1052.6C1055.39 97.605 1057.77 97.165 1059.75 96.285C1061.8 95.3316 1063.38 94.0116 1064.48 92.325C1065.58 90.565 1066.13 88.475 1066.13 86.055C1066.13 83.635 1065.58 81.5816 1064.48 79.895C1063.38 78.135 1061.8 76.815 1059.75 75.935C1057.77 74.9816 1055.39 74.505 1052.6 74.505H1037.31Z" fill="#5C9253"/>
<path d="M104 1.98025C104 0.82923 104.975 -0.0857378 106.123 0.00648883C157.552 4.14062 198 47.1858 198 99.6797C198 152.174 157.552 195.218 106.123 199.352C104.975 199.444 104 198.529 104 197.378V171.262C104 170.223 104.8 169.36 105.832 169.245C140.806 165.351 168 135.692 168 99.6797C168 63.6675 140.806 34.0072 105.832 30.1133C104.8 29.9984 104 29.1352 104 28.0962V1.98025Z" fill="#5C9253"/>
<path d="M94 28.0962C94 29.1352 93.2013 29.9983 92.1687 30.1132C62.9705 33.3636 39.195 54.5737 32.1385 82.4457C31.8258 83.6811 32.776 84.8584 34.0503 84.8584H92C93.1046 84.8584 94 85.7538 94 86.8584V112.858C94 113.963 93.1046 114.858 92 114.858H34.1418C32.8632 114.858 31.9121 116.043 32.2327 117.281C39.4044 144.972 63.099 166.009 92.1688 169.245C93.2014 169.36 94 170.223 94 171.262V197.378C94 198.529 93.0247 199.444 91.8774 199.352C40.4477 195.218 0 152.174 0 99.6797C0 47.1858 40.4477 4.14062 91.8774 0.00648913C93.0247 -0.0857375 94 0.82923 94 1.98025V28.0962Z" fill="#2C652B"/>
</svg>
