<svg width="593" height="100" viewBox="0 0 593 100" fill="none" xmlns="http://www.w3.org/2000/svg">
<path d="M121.2 76V23.2H134.16V76H121.2ZM130.88 76V65.2H158.96V76H130.88ZM130.88 54.24V44.56H155.28V54.24H130.88ZM130.88 34V23.2H158.96V34H130.88ZM161.858 76V52.08V33.76H172.818V50.96H173.458C173.778 46.8 174.471 43.3867 175.538 40.72C176.605 38 178.125 35.9733 180.098 34.64C182.071 33.3067 184.578 32.64 187.618 32.64C192.205 32.64 195.645 34.16 197.938 37.2C200.285 40.24 201.458 44.7733 201.458 50.8V76H188.498V52.48C188.498 49.6 188.045 47.44 187.138 46C186.285 44.56 184.898 43.84 182.978 43.84C181.378 43.84 179.965 44.4 178.738 45.52C177.511 46.64 176.551 48.4533 175.858 50.96C175.165 53.4667 174.818 56.8267 174.818 61.04V76H161.858ZM225.26 77.12C221.26 77.12 217.9 76.56 215.18 75.44C212.513 74.2667 210.353 72.6933 208.7 70.72C207.047 68.6933 205.847 66.4 205.1 63.84C204.407 61.28 204.06 58.5867 204.06 55.76C204.06 52.72 204.433 49.8133 205.18 47.04C205.98 44.2667 207.18 41.8133 208.78 39.68C210.433 37.4933 212.54 35.7867 215.1 34.56C217.713 33.28 220.833 32.64 224.46 32.64C228.087 32.64 231.18 33.28 233.74 34.56C236.353 35.7867 238.433 37.52 239.98 39.76C241.527 42 242.513 44.5867 242.94 47.52C243.42 50.4533 243.367 53.6267 242.78 57.04L212.14 57.52V50.48L232.86 50.08L231.18 54.16C231.5 51.7067 231.447 49.6533 231.02 48C230.647 46.2933 229.927 45.0133 228.86 44.16C227.793 43.2533 226.327 42.8 224.46 42.8C222.487 42.8 220.913 43.3067 219.74 44.32C218.567 45.3333 217.74 46.7733 217.26 48.64C216.78 50.4533 216.54 52.6133 216.54 55.12C216.54 59.44 217.26 62.5867 218.7 64.56C220.14 66.5333 222.353 67.52 225.34 67.52C226.62 67.52 227.687 67.36 228.54 67.04C229.393 66.72 230.087 66.2667 230.62 65.68C231.153 65.04 231.527 64.2933 231.74 63.44C231.953 62.5333 232.033 61.52 231.98 60.4L243.82 61.04C243.98 62.8 243.793 64.6133 243.26 66.48C242.78 68.3467 241.847 70.08 240.46 71.68C239.073 73.28 237.127 74.5867 234.62 75.6C232.167 76.6133 229.047 77.12 225.26 77.12ZM246.705 76V53.04V33.76H257.905V50.56H258.545C258.865 46.08 259.478 42.56 260.385 40C261.345 37.3867 262.518 35.5467 263.905 34.48C265.345 33.36 266.945 32.8 268.705 32.8C269.665 32.8 270.652 32.9333 271.665 33.2C272.732 33.4667 273.772 33.8933 274.785 34.48L274.145 48.88C272.972 48.1867 271.825 47.68 270.705 47.36C269.585 46.9867 268.518 46.8 267.505 46.8C265.798 46.8 264.358 47.28 263.185 48.24C262.012 49.2 261.105 50.6133 260.465 52.48C259.878 54.3467 259.585 56.6133 259.585 59.28V76H246.705ZM293.075 88.64C288.328 88.64 284.568 88.2667 281.795 87.52C279.022 86.7733 277.048 85.7333 275.875 84.4C274.702 83.12 274.115 81.6267 274.115 79.92C274.115 77.5733 275.048 75.7067 276.915 74.32C278.782 72.88 281.502 71.8933 285.075 71.36V70.96C282.355 70.96 280.222 70.5067 278.675 69.6C277.128 68.64 276.355 67.3333 276.355 65.68C276.355 64.1333 277.048 62.7467 278.435 61.52C279.875 60.2933 282.195 59.68 285.395 59.68V59.12C282.515 58.4267 280.222 57.0933 278.515 55.12C276.808 53.1467 275.955 50.5867 275.955 47.44C275.955 44.6667 276.648 42.2667 278.035 40.24C279.475 38.2133 281.555 36.64 284.275 35.52C286.995 34.3467 290.302 33.76 294.195 33.76H315.235V43.68L300.755 41.84V42.48C305.182 43.0667 308.168 44.08 309.715 45.52C311.315 46.9067 312.115 48.5867 312.115 50.56C312.115 52.5333 311.502 54.2933 310.275 55.84C309.102 57.3867 307.262 58.6133 304.755 59.52C302.248 60.3733 299.075 60.8 295.235 60.8C294.062 60.8 292.862 60.7467 291.635 60.64C290.462 60.5333 289.448 60.3733 288.595 60.16C287.688 60.5333 286.968 60.9333 286.435 61.36C285.955 61.7333 285.715 62.1333 285.715 62.56C285.715 62.8267 285.822 63.04 286.035 63.2C286.248 63.3067 286.542 63.3867 286.915 63.44C287.342 63.4933 287.822 63.52 288.355 63.52H301.155C302.275 63.52 303.662 63.6 305.315 63.76C307.022 63.8667 308.702 64.2667 310.355 64.96C312.062 65.6 313.475 66.6933 314.595 68.24C315.715 69.7867 316.275 71.9733 316.275 74.8C316.275 78 315.422 80.6133 313.715 82.64C312.062 84.6667 309.528 86.16 306.115 87.12C302.702 88.1333 298.355 88.64 293.075 88.64ZM293.075 77.28C296.648 77.28 299.288 77.1467 300.995 76.88C302.702 76.6667 303.822 76.3467 304.355 75.92C304.888 75.4933 305.155 75.0133 305.155 74.48C305.155 73.7333 304.942 73.1467 304.515 72.72C304.088 72.2933 303.555 72 302.915 71.84C302.275 71.6267 301.635 71.52 300.995 71.52C300.408 71.4667 299.928 71.44 299.555 71.44H288.755C287.048 72.0267 285.875 72.5867 285.235 73.12C284.648 73.6 284.355 74.16 284.355 74.8C284.355 75.5467 284.702 76.08 285.395 76.4C286.142 76.7733 287.155 77.0133 288.435 77.12C289.768 77.2267 291.315 77.28 293.075 77.28ZM294.435 53.76C296.142 53.76 297.448 53.2267 298.355 52.16C299.315 51.0933 299.795 49.6267 299.795 47.76C299.795 45.8933 299.315 44.4 298.355 43.28C297.395 42.1067 296.062 41.52 294.355 41.52C292.702 41.52 291.368 42.1067 290.355 43.28C289.395 44.4 288.915 45.8933 288.915 47.76C288.915 48.9867 289.128 50.0533 289.555 50.96C289.982 51.8667 290.595 52.56 291.395 53.04C292.248 53.52 293.262 53.76 294.435 53.76ZM336.388 77.12C332.335 77.12 328.735 76.32 325.588 74.72C322.441 73.0667 319.988 70.6133 318.228 67.36C316.468 64.0533 315.588 59.92 315.588 54.96C315.588 49.7867 316.495 45.5733 318.308 42.32C320.175 39.0133 322.681 36.5867 325.828 35.04C329.028 33.44 332.628 32.64 336.628 32.64C340.788 32.64 344.415 33.4667 347.508 35.12C350.655 36.72 353.081 39.1733 354.788 42.48C356.548 45.7333 357.428 49.8667 357.428 54.88C357.428 60.0533 356.495 64.2933 354.628 67.6C352.815 70.8533 350.308 73.2533 347.108 74.8C343.961 76.3467 340.388 77.12 336.388 77.12ZM336.708 67.6C338.361 67.6 339.748 67.1467 340.868 66.24C341.988 65.28 342.841 63.8933 343.428 62.08C344.015 60.2667 344.308 58.1067 344.308 55.6C344.308 52.8267 343.988 50.5067 343.348 48.64C342.708 46.72 341.775 45.2533 340.548 44.24C339.375 43.2267 337.935 42.72 336.228 42.72C334.628 42.72 333.268 43.2 332.148 44.16C331.028 45.0667 330.175 46.4267 329.588 48.24C329.001 50.0533 328.708 52.24 328.708 54.8C328.708 58.8533 329.401 62 330.788 64.24C332.228 66.48 334.201 67.6 336.708 67.6ZM384.899 77.12C380.419 77.12 376.579 76.4 373.379 74.96C370.179 73.52 367.565 71.52 365.539 68.96C363.512 66.4 362.019 63.4933 361.059 60.24C360.152 56.9333 359.699 53.44 359.699 49.76C359.699 45.9733 360.179 42.4 361.139 39.04C362.099 35.68 363.565 32.7467 365.539 30.24C367.565 27.68 370.152 25.68 373.299 24.24C376.445 22.8 380.232 22.08 384.659 22.08C388.499 22.08 391.805 22.64 394.579 23.76C397.352 24.8267 399.565 26.32 401.219 28.24C402.925 30.1067 404.099 32.2667 404.739 34.72C405.379 37.1733 405.539 39.7333 405.219 42.4L393.299 43.84C393.405 41.5467 393.112 39.5733 392.419 37.92C391.779 36.2667 390.765 34.9867 389.379 34.08C388.045 33.1733 386.339 32.72 384.259 32.72C382.499 32.72 380.925 33.0667 379.539 33.76C378.205 34.4533 377.059 35.4933 376.099 36.88C375.192 38.2667 374.499 40 374.019 42.08C373.539 44.1067 373.299 46.48 373.299 49.2C373.299 52.72 373.725 55.7867 374.579 58.4C375.432 60.96 376.739 62.96 378.499 64.4C380.259 65.7867 382.472 66.48 385.139 66.48C387.592 66.48 389.512 65.92 390.899 64.8C392.339 63.68 393.352 62.1333 393.939 60.16C394.525 58.1867 394.712 55.9733 394.499 53.52L406.739 54.56C407.005 57.4933 406.792 60.32 406.099 63.04C405.459 65.7067 404.259 68.1067 402.499 70.24C400.792 72.3733 398.472 74.0533 395.539 75.28C392.659 76.5067 389.112 77.12 384.899 77.12ZM429.447 77.12C425.447 77.12 422.087 76.56 419.367 75.44C416.701 74.2667 414.541 72.6933 412.887 70.72C411.234 68.6933 410.034 66.4 409.287 63.84C408.594 61.28 408.247 58.5867 408.247 55.76C408.247 52.72 408.621 49.8133 409.367 47.04C410.167 44.2667 411.367 41.8133 412.967 39.68C414.621 37.4933 416.727 35.7867 419.287 34.56C421.901 33.28 425.021 32.64 428.647 32.64C432.274 32.64 435.367 33.28 437.927 34.56C440.541 35.7867 442.621 37.52 444.167 39.76C445.714 42 446.701 44.5867 447.127 47.52C447.607 50.4533 447.554 53.6267 446.967 57.04L416.327 57.52V50.48L437.047 50.08L435.367 54.16C435.687 51.7067 435.634 49.6533 435.207 48C434.834 46.2933 434.114 45.0133 433.047 44.16C431.981 43.2533 430.514 42.8 428.647 42.8C426.674 42.8 425.101 43.3067 423.927 44.32C422.754 45.3333 421.927 46.7733 421.447 48.64C420.967 50.4533 420.727 52.6133 420.727 55.12C420.727 59.44 421.447 62.5867 422.887 64.56C424.327 66.5333 426.541 67.52 429.527 67.52C430.807 67.52 431.874 67.36 432.727 67.04C433.581 66.72 434.274 66.2667 434.807 65.68C435.341 65.04 435.714 64.2933 435.927 63.44C436.141 62.5333 436.221 61.52 436.167 60.4L448.007 61.04C448.167 62.8 447.981 64.6133 447.447 66.48C446.967 68.3467 446.034 70.08 444.647 71.68C443.261 73.28 441.314 74.5867 438.807 75.6C436.354 76.6133 433.234 77.12 429.447 77.12ZM450.893 76V52.08V33.76H461.853V50.96H462.493C462.813 46.8 463.506 43.3867 464.573 40.72C465.639 38 467.159 35.9733 469.133 34.64C471.106 33.3067 473.613 32.64 476.653 32.64C481.239 32.64 484.679 34.16 486.973 37.2C489.319 40.24 490.493 44.7733 490.493 50.8V76H477.533V52.48C477.533 49.6 477.079 47.44 476.173 46C475.319 44.56 473.933 43.84 472.013 43.84C470.413 43.84 468.999 44.4 467.773 45.52C466.546 46.64 465.586 48.4533 464.893 50.96C464.199 53.4667 463.853 56.8267 463.853 61.04V76H450.893ZM511.094 76.96C506.134 76.96 502.428 75.7067 499.974 73.2C497.574 70.64 496.374 66.6933 496.374 61.36V43.84H491.734V35.68H491.974C495.281 35.2533 497.628 34.16 499.014 32.4C500.401 30.5867 501.254 27.8667 501.574 24.24V24.08H509.174V33.76H518.854V44.16H509.174V60.16C509.174 62.1867 509.654 63.6267 510.614 64.48C511.628 65.3333 512.854 65.76 514.294 65.76C515.041 65.76 515.814 65.6533 516.614 65.44C517.414 65.2267 518.161 64.9333 518.854 64.56V75.84C517.201 76.32 515.734 76.6133 514.454 76.72C513.174 76.88 512.054 76.96 511.094 76.96ZM532.953 77.12C530.82 77.12 528.793 76.7467 526.873 76C524.953 75.2533 523.38 74.0533 522.153 72.4C520.926 70.6933 520.313 68.4267 520.313 65.6C520.313 62.9867 520.82 60.88 521.833 59.28C522.846 57.6267 524.206 56.32 525.913 55.36C527.62 54.3467 529.486 53.6 531.513 53.12C533.54 52.5867 535.54 52.1333 537.513 51.76C540.286 51.2267 542.366 50.8 543.753 50.48C545.14 50.16 546.073 49.7867 546.553 49.36C547.086 48.9333 547.353 48.3467 547.353 47.6C547.353 46.0533 546.766 44.88 545.593 44.08C544.473 43.28 542.98 42.88 541.113 42.88C539.94 42.88 538.766 43.0933 537.593 43.52C536.42 43.9467 535.46 44.72 534.713 45.84C533.966 46.9067 533.62 48.4533 533.673 50.48L522.153 49.68C522.046 46.32 522.553 43.5467 523.673 41.36C524.793 39.12 526.313 37.3867 528.233 36.16C530.206 34.88 532.34 33.9733 534.633 33.44C536.98 32.9067 539.3 32.64 541.593 32.64C545.806 32.64 549.273 33.44 551.993 35.04C554.713 36.5867 556.713 38.8533 557.993 41.84C559.326 44.7733 559.993 48.3467 559.993 52.56V60.08C559.993 61.84 559.993 63.6267 559.993 65.44C559.993 67.2 559.993 68.96 559.993 70.72C559.993 72.48 559.993 74.24 559.993 76H548.793C548.793 74.08 548.793 72.1333 548.793 70.16C548.793 68.1867 548.793 66.1067 548.793 63.92H548.313C548.1 66.32 547.3 68.5333 545.913 70.56C544.58 72.5333 542.793 74.1333 540.553 75.36C538.366 76.5333 535.833 77.12 532.953 77.12ZM538.313 67.68C539.22 67.68 540.18 67.52 541.193 67.2C542.26 66.8267 543.246 66.24 544.153 65.44C545.113 64.64 545.886 63.5467 546.473 62.16C547.06 60.72 547.353 58.96 547.353 56.88V54.96L549.513 54.72C549.086 55.4133 548.366 55.9733 547.353 56.4C546.393 56.8267 545.3 57.1733 544.073 57.44C542.846 57.6533 541.593 57.8933 540.313 58.16C539.086 58.3733 537.94 58.6933 536.873 59.12C535.806 59.4933 534.926 60.0267 534.233 60.72C533.593 61.36 533.273 62.2667 533.273 63.44C533.273 64.8267 533.753 65.8933 534.713 66.64C535.726 67.3333 536.926 67.68 538.313 67.68ZM563.671 76V53.04V33.76H574.871V50.56H575.511C575.831 46.08 576.444 42.56 577.351 40C578.311 37.3867 579.484 35.5467 580.871 34.48C582.311 33.36 583.911 32.8 585.671 32.8C586.631 32.8 587.617 32.9333 588.631 33.2C589.697 33.4667 590.737 33.8933 591.751 34.48L591.111 48.88C589.937 48.1867 588.791 47.68 587.671 47.36C586.551 46.9867 585.484 46.8 584.471 46.8C582.764 46.8 581.324 47.28 580.151 48.24C578.977 49.2 578.071 50.6133 577.431 52.48C576.844 54.3467 576.551 56.6133 576.551 59.28V76H563.671Z" fill="#2E6E3E"/>
<path d="M52 9C57.3842 9 62.7157 10.0605 67.69 12.1209C72.6644 14.1814 77.1842 17.2014 80.9914 21.0086C84.7986 24.8158 87.8186 29.3356 89.8791 34.31C91.9395 39.2843 93 44.6158 93 50C93 55.3842 91.9395 60.7157 89.8791 65.69C87.8186 70.6644 84.7986 75.1842 80.9914 78.9914C77.1842 82.7986 72.6644 85.8186 67.69 87.8791C62.7157 89.9395 57.3842 91 52 91" stroke="#2E6E3E" stroke-width="18"/>
<path d="M50 9C44.6158 9 39.2843 10.0605 34.31 12.1209C29.3356 14.1814 24.8158 17.2014 21.0086 21.0086C17.2014 24.8158 14.1814 29.3356 12.1209 34.31C10.0605 39.2843 9 44.6158 9 50C9 55.3842 10.0605 60.7157 12.1209 65.69C14.1814 70.6644 17.2014 75.1842 21.0086 78.9914C24.8158 82.7986 29.3356 85.8186 34.31 87.8791C39.2843 89.9395 44.6158 91 50 91" stroke="#2E6E3E" stroke-width="18"/>
<rect x="2.5" y="41.5" width="47" height="17" fill="#2E6E3E" stroke="#2E6E3E"/>
</svg>
