<svg width="104" height="100" viewBox="0 0 104 100" fill="none" xmlns="http://www.w3.org/2000/svg">
<path d="M54 3.8521C54 1.64296 55.794 -0.164556 57.9961 0.0119157C69.7942 0.957402 80.925 6.06641 89.3553 14.4968C98.7321 23.8736 104 36.5913 104 49.8521C104 63.1129 98.7322 75.8306 89.3554 85.2074C80.925 93.6378 69.7942 98.7468 57.9961 99.6923C55.794 99.8688 54 98.0612 54 95.8521L54 86.3521C54 84.143 55.7976 82.3775 57.9901 82.1064C65.1388 81.2222 71.8342 77.9799 76.981 72.8331C83.0759 66.7381 86.5 58.4716 86.5 49.8521C86.5 41.2326 83.0759 32.9661 76.981 26.8711C71.8341 21.7243 65.1388 18.482 57.99 17.5978C55.7976 17.3267 54 15.5612 54 13.3521V3.8521Z" fill="#2E6F40"/>
<path d="M46.0039 0.0120536C48.2059 -0.164402 49.9999 1.64286 50 3.8519V13.3519C50 15.561 48.2022 17.3268 46.0098 17.598C38.861 18.4822 32.1653 21.7246 27.0186 26.8714C23.0965 30.7936 16 40.8521 18.7734 40.8519H46C48.2091 40.8519 49.9999 42.6428 50 44.8519V54.8519C50 57.061 48.2091 58.8519 46 58.8519H18.7734C16 58.8521 23.0962 68.911 27.0186 72.8333C32.1653 77.9801 38.861 81.2226 46.0098 82.1068C48.2021 82.3779 49.9999 84.1429 50 86.3519V95.8519C50 98.061 48.206 99.8692 46.0039 99.6927C34.2058 98.7472 23.0749 93.6377 14.6445 85.2074C5.26778 75.8306 9.11595e-06 63.1127 0 49.8519C5.26462e-05 36.5912 5.26778 23.8732 14.6445 14.4964C23.0749 6.06616 34.2059 0.957552 46.0039 0.0120536Z" fill="#2E6F40"/>
</svg>
