<svg width="198" height="200" viewBox="0 0 198 200" fill="none" xmlns="http://www.w3.org/2000/svg">
<path d="M104 1.98025C104 0.82923 104.975 -0.0857378 106.123 0.00648883C157.552 4.14062 198 47.1858 198 99.6797C198 152.174 157.552 195.218 106.123 199.352C104.975 199.444 104 198.529 104 197.378V171.262C104 170.223 104.8 169.36 105.832 169.245C140.806 165.351 168 135.692 168 99.6797C168 63.6675 140.806 34.0072 105.832 30.1133C104.8 29.9984 104 29.1352 104 28.0962V1.98025Z" fill="#5C9253"/>
<path d="M94 28.0962C94 29.1352 93.2013 29.9983 92.1687 30.1132C62.9705 33.3636 39.195 54.5737 32.1385 82.4457C31.8258 83.6811 32.776 84.8584 34.0503 84.8584H92C93.1046 84.8584 94 85.7538 94 86.8584V112.858C94 113.963 93.1046 114.858 92 114.858H34.1418C32.8632 114.858 31.9121 116.043 32.2327 117.281C39.4044 144.972 63.099 166.009 92.1688 169.245C93.2014 169.36 94 170.223 94 171.262V197.378C94 198.529 93.0247 199.444 91.8774 199.352C40.4477 195.218 0 152.174 0 99.6797C0 47.1858 40.4477 4.14062 91.8774 0.00648913C93.0247 -0.0857375 94 0.82923 94 1.98025V28.0962Z" fill="#2C652B"/>
</svg>
