<svg width="102" height="100" viewBox="0 0 102 100" fill="none" xmlns="http://www.w3.org/2000/svg">
<path d="M52 9C57.3842 9 62.7157 10.0605 67.69 12.1209C72.6644 14.1814 77.1842 17.2014 80.9914 21.0086C84.7986 24.8158 87.8186 29.3356 89.8791 34.31C91.9395 39.2843 93 44.6158 93 50C93 55.3842 91.9395 60.7157 89.8791 65.69C87.8186 70.6644 84.7986 75.1842 80.9914 78.9914C77.1842 82.7986 72.6644 85.8186 67.69 87.8791C62.7157 89.9395 57.3842 91 52 91" stroke="#2E6E3E" stroke-width="18"/>
<path d="M50 9C44.6158 9 39.2843 10.0605 34.31 12.1209C29.3356 14.1814 24.8158 17.2014 21.0086 21.0086C17.2014 24.8158 14.1814 29.3356 12.1209 34.31C10.0605 39.2843 9 44.6158 9 50C9 55.3842 10.0605 60.7157 12.1209 65.69C14.1814 70.6644 17.2014 75.1842 21.0086 78.9914C24.8158 82.7986 29.3356 85.8186 34.31 87.8791C39.2843 89.9395 44.6158 91 50 91" stroke="#2E6E3E" stroke-width="18"/>
<rect x="2.5" y="41.5" width="47" height="17" fill="#2E6E3E" stroke="#2E6E3E"/>
</svg>
